<svg xmlns="http://www.w3.org/2000/svg" xml:space="preserve" width="800" height="800" viewBox="0 0 512 512"><path d="M270.22 123.632c-3.424-32.984-31.3-58.704-65.19-58.704-33.891 0-61.767 25.72-65.19 58.705 19.229-11.008 41.445-17.391 65.19-17.391 23.745 0 45.96 6.382 65.19 17.39zM409.02 216.804c.7 6.893 1.059 13.887 1.059 20.965 0 24.773-4.393 48.519-12.442 70.502a203.735 203.735 0 0 1-7.778 18.395c-2.072 4.299-4.339 8.484-6.696 12.611h17.663v.125c44.818 0 81.279-36.461 81.279-81.279 0-44.802-36.434-81.251-81.23-81.277a203.488 203.488 0 0 1 5.038 19.599 204.854 204.854 0 0 1 3.107 20.359zM319.166 302.959c32.984-3.423 58.705-31.301 58.705-65.19 0-33.89-25.721-61.767-58.705-65.191 11.008 19.23 17.391 41.445 17.391 65.191 0 23.745-6.383 45.96-17.391 65.19zM208.598 369.116c-1.197.032-2.364.18-3.568.18-23.745 0-45.961-6.382-65.19-17.391 3.423 32.985 31.299 58.705 65.19 58.705 27.679 0 51.3-17.18 60.912-41.438h-57.344v-.056zM90.894 172.578c-32.984 3.423-58.706 31.301-58.706 65.191s25.721 61.767 58.706 65.19c-11.008-19.23-17.391-41.445-17.391-65.19 0-23.746 6.382-45.961 17.391-65.191z" style="fill:none"/><path d="M152.087 274.425c-7.221-10.409-11.48-23.028-11.48-36.656 0-13.629 4.258-26.248 11.479-36.656-11.781-17.432-31.726-28.893-54.349-28.893-2.312 0-4.594.126-6.844.359-11.008 19.23-17.391 41.445-17.391 65.191 0 23.745 6.383 45.961 17.391 65.19 2.25.233 4.532.359 6.844.359 22.624 0 42.57-11.461 54.35-28.894zM257.973 201.111c7.221 10.41 11.48 23.029 11.48 36.657 0 13.629-4.259 26.248-11.48 36.658 11.78 17.431 31.727 28.892 54.35 28.892 2.312 0 4.594-.126 6.844-.359 11.008-19.23 17.391-41.445 17.391-65.19 0-23.745-6.383-45.961-17.391-65.191a66.403 66.403 0 0 0-6.844-.359c-22.624 0-42.57 11.46-54.35 28.892zM168.373 184.827c10.409-7.222 23.028-11.48 36.657-11.48 13.628 0 26.248 4.258 36.657 11.479 17.432-11.781 28.893-31.726 28.893-54.35 0-2.312-.126-4.594-.36-6.845-19.229-11.007-41.445-17.39-65.19-17.39-23.745 0-45.961 6.382-65.19 17.391a66.137 66.137 0 0 0-.36 6.844c0 22.624 11.461 42.57 28.893 54.351z" style="fill:#564a47"/><path d="M152.087 201.112c-7.221 10.409-11.479 23.028-11.479 36.656 0 13.629 4.258 26.248 11.48 36.656 7.071-10.463 11.2-23.077 11.2-36.656-.001-13.578-4.13-26.193-11.201-36.656zM168.372 290.711c10.41 7.222 23.029 11.48 36.657 11.48 13.628 0 26.248-4.258 36.657-11.479-10.463-7.071-23.078-11.201-36.657-11.201-13.578-.001-26.193 4.129-36.657 11.2zM241.687 184.826c-10.409-7.221-23.029-11.479-36.657-11.479-13.628 0-26.248 4.258-36.657 11.48 10.463 7.07 23.078 11.2 36.657 11.2 13.579 0 26.193-4.13 36.657-11.201zM257.972 274.427c7.221-10.41 11.48-23.029 11.48-36.658 0-13.629-4.258-26.248-11.48-36.657-7.071 10.464-11.201 23.078-11.201 36.657 0 13.579 4.13 26.194 11.201 36.658zM205.03 220.592c-9.487 0-17.177 7.69-17.177 17.177 0 4.744 1.923 9.038 5.031 12.146.777.777 1.628 1.48 2.542 2.097a17.099 17.099 0 0 0 9.604 2.934 17.125 17.125 0 0 0 12.146-5.031 17.357 17.357 0 0 0 2.098-2.543 17.064 17.064 0 0 0 2.584-6.142 17.24 17.24 0 0 0 .349-3.462 17.081 17.081 0 0 0-2.933-9.604c-3.088-4.568-8.315-7.572-14.244-7.572z" style="fill:#c8562f"/><path d="M153.785 436.361zM372.684 119.783c2.683 3.805 5.285 7.671 7.709 11.661-2.425-3.991-5.026-7.856-7.709-11.661zM116.133 422.596zM405.912 196.444a203.714 203.714 0 0 1 0 0zM90.385 407.798zM405.912 196.444zM152.087 274.425c-11.781 17.433-31.727 28.893-54.349 28.893-2.312 0-4.594-.126-6.844-.359 5.83 10.183 12.891 19.572 21.132 27.813l47.451-47.451c-2.728-2.727-5.185-5.717-7.39-8.896zM219.273 228.165z" style="fill:#e8dfd4"/><path d="M397.636 308.271zM350.021 92.778c8.313 8.312 15.87 17.369 22.663 27.005-6.793-9.634-14.35-18.692-22.663-27.005zM350.021 382.759c4.335-4.335 8.456-8.88 12.391-13.587h-.001a206.163 206.163 0 0 1-12.39 13.587zM293.927 422.596z" style="opacity:.1"/><path d="M192.884 249.915z" style="fill:#c8562f"/><path d="M192.884 249.915z" style="opacity:.1"/><path d="M221.858 241.23z" style="fill:#c8562f"/><path d="M221.858 241.23z" style="opacity:.1"/><path d="M217.176 249.915z" style="fill:#c8562f"/><path d="M217.176 249.915z" style="opacity:.1"/><path d="M356.798 0v29.823c-21.696 0-40.632 11.959-50.752 29.516a199.553 199.553 0 0 0-27.139-12.802c14.259-26.45 41.475-44.696 73.061-46.383 1.61-.077 3.22-.154 4.83-.154zM406.832 147.116v-.168h-17.96c.32.648.672 1.275.986 1.924a203.735 203.735 0 0 1 11.002 27.922c.006.018.009.036.014.052 44.796.026 81.23 36.475 81.23 81.277 0 44.818-36.461 81.279-81.279 81.279v-.125h-17.663c-2.556 4.476-5.227 8.879-8.103 13.137-3.926 5.812-8.162 11.393-12.647 16.759h38.414v.124c61.302 0 111.174-49.871 111.174-111.173 0-59.289-46.648-107.877-105.168-111.008zM208.598 369.116v.056h57.344c2.157-5.443 3.65-11.222 4.278-17.266-18.254 10.45-39.227 16.608-61.622 17.21z" style="fill:#564a47"/><path d="M270.288 339.277c-1.771-20.211-12.673-37.802-28.601-48.565-10.409 7.221-23.029 11.479-36.657 11.479-13.628 0-26.248-4.258-36.657-11.48-17.432 11.78-28.893 31.727-28.893 54.35 0 2.312.126 4.593.36 6.844 19.229 11.008 41.445 17.391 65.19 17.391 1.204 0 2.371-.148 3.568-.18 22.395-.603 43.368-6.761 61.622-17.21.233-2.251.36-4.533.36-6.845 0-1.953-.125-3.875-.292-5.784zM400.874 176.846l-.014-.052.014.052z" style="fill:#564a47"/><path d="m293.146 149.653 4.888-4.888c-6.147-6.147-12.922-11.657-20.183-16.496 4.006 7.895 9.209 15.066 15.295 21.384z" style="fill:#e8dfd4"/><path d="M389.858 148.871zM362.411 369.172a205.636 205.636 0 0 0 12.648-16.759c-3.926 5.812-8.163 11.393-12.648 16.759z" style="fill:#564a47"/><path d="M409.774 227.235c-.154-3.527-.383-6.977-.767-10.426-.383-3.45-.843-6.9-1.303-10.274-.537-3.449-1.073-6.822-1.763-10.119-1.38-6.593-3.067-13.186-5.06-19.549v-.077a197.62 197.62 0 0 0-3.22-9.506 194.868 194.868 0 0 0-7.82-18.401 15.14 15.14 0 0 0-.997-1.917 250.397 250.397 0 0 0-4.063-7.819c-1.38-2.606-2.837-5.214-4.37-7.666-2.453-4.063-5.06-7.897-7.743-11.73a240.816 240.816 0 0 0-5.213-7.054 200.9 200.9 0 0 0-16.406-18.859c-.306-.384-.613-.69-.997-1.073-13.033-13.033-27.906-24.226-44.006-33.426a199.553 199.553 0 0 0-27.139-12.802c-22.923-8.893-47.839-13.8-73.905-13.8C91.768 32.736 0 124.504 0 237.738c0 47.916 16.406 92.075 44.006 126.958 4.907 6.363 10.35 12.419 16.023 18.092.383.384.69.691 1.073.998 2.224 2.223 4.6 4.37 6.9 6.44 3.144 2.837 6.363 5.596 9.66 8.126.077.154.153.23.23.23a71.024 71.024 0 0 0 4.754 3.68 175.07 175.07 0 0 0 7.667 5.52c8.203 5.521 16.789 10.504 25.759 14.797 11.96 5.75 24.533 10.426 37.642 13.799 16.406 4.217 33.579 6.441 51.289 6.441s34.882-2.224 51.212-6.441c13.11-3.373 25.683-8.049 37.643-13.799 20.929-10.043 39.866-23.613 56.119-39.79h.076a170.61 170.61 0 0 0 6.287-6.669c2.07-2.3 4.064-4.601 6.057-6.977 4.523-5.367 8.74-10.887 12.65-16.713a178.543 178.543 0 0 0 8.126-13.186c2.377-4.064 4.6-8.28 6.67-12.573a194.739 194.739 0 0 0 7.82-18.4c8.05-22.002 12.42-45.692 12.42-70.531-.003-3.528-.079-7.055-.309-10.505zm-190.513.92c1.227 1.84 2.147 3.91 2.607 6.133.23 1.149.307 2.299.307 3.45 0 1.226-.077 2.377-.307 3.526-.46 2.223-1.38 4.294-2.607 6.133a16.525 16.525 0 0 1-2.07 2.53 17.51 17.51 0 0 1-5.443 3.681 17.948 17.948 0 0 1-6.747 1.303 17.23 17.23 0 0 1-9.583-2.913c-.46-.306-.92-.69-1.38-1.15a6.051 6.051 0 0 1-1.15-.92c-3.143-3.144-5.06-7.436-5.06-12.189 0-9.43 7.743-17.173 17.173-17.173 5.29 0 9.966 2.377 13.187 6.134.384.458.69.918 1.073 1.455zm78.735-83.412-4.83 4.907c-6.133-6.287-11.346-13.493-15.333-21.39a130.516 130.516 0 0 1 20.163 16.483zM139.837 123.66c3.45-33.042 31.279-58.726 65.165-58.726 33.886 0 61.792 25.684 65.242 58.726.23 2.223.307 4.523.307 6.823 0 22.616-11.423 42.549-28.826 54.355-10.503 7.053-23.153 11.194-36.723 11.194s-26.143-4.14-36.646-11.194c-17.403-11.806-28.903-31.739-28.903-54.355 0-2.299.154-4.6.384-6.823zM32.199 237.738c0-33.885 25.683-61.716 58.725-65.165 2.224-.23 4.523-.384 6.823-.384 22.616 0 42.549 11.5 54.356 28.903 7.053 10.503 11.193 23.076 11.193 36.646 0 13.646-4.14 26.219-11.193 36.723a74.136 74.136 0 0 0 7.36 8.892l-47.456 47.456c-8.203-8.279-15.256-17.633-21.083-27.829-33.042-3.45-58.725-31.357-58.725-65.242zm238.045 114.154c-.613 6.056-2.147 11.806-4.293 17.25-.613 1.533-1.226 2.99-1.993 4.446-3.527 7.283-8.356 13.877-14.183 19.32-11.73 10.963-27.446 17.71-44.772 17.71-29.669 0-54.739-19.703-62.788-46.766-1.15-3.833-1.917-7.82-2.377-11.883v-.077c-.23-2.224-.383-4.523-.383-6.823 0-22.616 11.5-42.549 28.903-54.356 10.503-7.052 23.076-11.193 36.646-11.193s26.219 4.14 36.723 11.193c15.869 10.734 26.756 28.367 28.596 48.53.154 1.917.23 3.833.23 5.827-.003 2.299-.079 4.598-.309 6.822zm94.374-74.672c-10.657 14.106-26.91 23.843-45.462 25.759-2.223.23-4.523.307-6.823.307-22.616 0-42.549-11.423-54.355-28.826-7.054-10.504-11.193-23.076-11.193-36.723 0-13.57 4.14-26.143 11.193-36.646 11.806-17.403 31.739-28.903 54.355-28.903 2.3 0 4.6.154 6.823.384 18.553 1.917 34.806 11.577 45.462 25.683 8.357 11.04 13.263 24.687 13.263 39.483s-4.906 28.442-13.263 39.482z" style="fill:#e8dfd4"/><path d="M496.865 202.242a107.877 107.877 0 0 0-15.563-20.623c-1.227-1.226-2.377-2.453-3.68-3.68-18.553-17.863-43.392-29.362-70.762-30.819h-.077v-.154h-17.94a250.397 250.397 0 0 0-4.063-7.819c-1.457-2.606-2.913-5.214-4.447-7.666-2.377-4.063-4.983-7.897-7.667-11.73a240.816 240.816 0 0 0-5.213-7.054c-5.136-6.592-10.58-12.802-16.406-18.859l-132.86 132.861-24.15 24.149-131.94 131.94-.997.998c2.224 2.223 4.6 4.37 6.9 6.44 3.144 2.837 6.363 5.596 9.66 8.126.077.154.153.23.23.23a71.024 71.024 0 0 0 4.754 3.68 175.07 175.07 0 0 0 7.667 5.52c8.203 5.521 16.789 10.504 25.759 14.797 11.96 5.75 24.533 10.426 37.642 13.799 16.406 4.217 33.579 6.441 51.289 6.441s34.882-2.224 51.212-6.441c13.11-3.373 25.683-8.049 37.643-13.799 20.929-10.043 39.866-23.613 56.119-39.79 2.223-2.146 4.293-4.446 6.363-6.669 2.07-2.3 4.064-4.601 6.057-6.977h38.409v.152c32.506 0 61.868-14.028 82.261-36.416 2.377-2.682 4.676-5.443 6.823-8.279a111.774 111.774 0 0 0 18.553-38.716c.92-3.526 1.686-7.13 2.223-10.81a90.75 90.75 0 0 0 1.15-11.194c.077-1.917.154-3.833.154-5.75a110.67 110.67 0 0 0-15.103-55.888zM249.774 392.908c-11.73 10.963-27.446 17.71-44.772 17.71-29.669 0-54.739-19.703-62.788-46.766-1.227-3.833-1.993-7.82-2.453-11.959h.077v.077a218.089 218.089 0 0 0 7.283 3.833c17.479 8.586 37.106 13.492 57.882 13.492 1.227 0 2.377-.152 3.527-.152h57.345a76.539 76.539 0 0 1-1.917 4.446c-3.528 7.282-8.357 13.799-14.184 19.319zm69.382-89.928a135.21 135.21 0 0 0 7.36-14.949c2.146-5.214 3.909-10.504 5.443-15.947 2.913-10.963 4.523-22.462 4.523-34.346 0-11.807-1.61-23.307-4.523-34.269-1.533-5.443-3.297-10.733-5.443-15.947a135.21 135.21 0 0 0-7.36-14.949c18.553 1.917 34.806 11.577 45.462 25.683 8.28 11.04 13.187 24.687 13.187 39.483s-4.907 28.442-13.187 39.483c-10.656 14.105-26.909 23.841-45.462 25.758zm81.648 36.416v-.154h-17.71c2.377-4.064 4.677-8.28 6.747-12.573 2.837-5.979 5.443-12.113 7.743-18.4 8.05-22.002 12.42-45.692 12.42-70.531 0-3.526-.077-7.053-.23-10.503-.154-3.527-.383-6.977-.767-10.426-.383-3.45-.843-6.9-1.303-10.274a198.414 198.414 0 0 0-1.84-10.119c-1.38-6.593-3.067-13.186-5.06-19.549h.076c22.387 0 42.702 9.123 57.346 23.842 3.68 3.681 6.976 7.743 9.966 12.037 1.457 2.147 2.837 4.37 4.063 6.67a75.774 75.774 0 0 1 1.764 3.527 86.684 86.684 0 0 1 3.143 7.283c3.144 8.739 4.907 18.093 4.907 27.905 0 44.772-36.493 81.265-81.265 81.265z" style="opacity:.1;fill:#040000"/></svg>